<?xml version="1.0" standalone="no"?>
<!DOCTYPE svg PUBLIC "-//W3C//DTD SVG 20010904//EN"
 "http://www.w3.org/TR/2001/REC-SVG-20010904/DTD/svg10.dtd">
<svg version="1.0" xmlns="http://www.w3.org/2000/svg"
 width="1104.000000pt" height="1424.000000pt" viewBox="0 0 1104.000000 1424.000000"
 preserveAspectRatio="xMidYMid meet">

<g transform="translate(0.000000,1424.000000) scale(0.100000,-0.100000)"
fill="#000000" stroke="none">
<path d="M5696 12324 c-60 -8 -161 -30 -225 -50 -63 -19 -125 -35 -136 -36
-11 -1 -54 8 -95 20 -92 26 -292 52 -397 52 -172 0 -330 -43 -528 -142 -152
-76 -233 -106 -273 -101 -52 7 -199 -23 -297 -60 -85 -32 -131 -58 -318 -182
-175 -115 -268 -230 -358 -440 -23 -55 -47 -102 -53 -104 -6 -2 -35 -27 -64
-55 -171 -161 -236 -351 -248 -726 l-6 -205 31 -123 c34 -135 44 -159 106
-247 33 -47 46 -78 60 -145 52 -250 300 -566 545 -694 30 -16 87 -48 125 -71
39 -23 104 -56 145 -73 121 -50 148 -66 154 -87 3 -11 6 -227 7 -480 1 -253 4
-473 8 -490 4 -20 0 -47 -13 -81 -16 -41 -27 -54 -53 -63 -87 -32 -151 -182
-140 -332 4 -70 2 -86 -15 -116 -27 -45 -36 -194 -16 -268 9 -33 11 -70 6
-110 -13 -103 1 -155 54 -212 27 -28 31 -39 32 -100 2 -87 31 -149 107 -224
45 -45 74 -63 157 -97 95 -40 106 -42 200 -42 73 0 114 5 158 20 73 26 131 63
146 95 11 24 13 24 87 17 42 -4 101 -7 131 -7 l55 0 -2 -269 -1 -269 29 -75
c29 -72 29 -76 14 -114 -19 -48 -19 -146 -1 -217 9 -37 11 -64 5 -85 -11 -36
-2 -127 16 -173 8 -20 11 -53 8 -90 -6 -70 9 -108 62 -150 28 -22 35 -35 35
-63 0 -56 44 -219 76 -284 43 -88 151 -174 324 -259 67 -32 243 -30 397 6 128
30 158 43 226 101 92 79 121 156 106 279 -5 43 -9 81 -7 82 2 2 50 -17 108
-40 137 -57 212 -69 375 -62 278 13 377 50 426 160 21 45 24 67 23 167 0 130
-19 196 -80 280 -39 54 -48 60 -163 104 -89 35 -205 56 -314 56 -44 0 -47 1
-37 19 16 31 11 112 -10 160 -16 35 -18 50 -10 80 7 26 5 53 -6 101 -27 116
-28 137 -4 192 18 41 21 66 18 123 l-3 72 25 -18 c14 -10 48 -21 75 -24 104
-13 173 55 195 191 13 78 13 303 0 398 -11 75 -11 75 20 117 22 32 30 53 30
86 0 49 -21 97 -48 112 -17 9 -18 16 -8 61 7 37 7 70 -3 123 -16 93 -20 124
-30 228 -6 67 -15 101 -42 155 -32 64 -34 75 -31 153 3 99 -16 189 -60 276
-32 64 -33 66 -122 174 -49 61 -57 77 -52 99 30 125 29 182 -6 239 -11 18 -48
59 -84 91 -44 40 -65 67 -70 90 -7 36 -4 37 61 22 161 -37 343 -60 467 -60
194 1 308 31 541 143 97 48 212 96 255 107 81 22 211 97 280 163 40 38 96 122
128 192 48 105 104 420 104 588 0 97 2 107 31 160 17 31 42 92 55 135 82 258
79 241 77 353 -1 120 -9 152 -99 377 -34 85 -67 150 -90 179 -75 91 -124 163
-124 182 0 71 -82 203 -199 320 -220 219 -350 308 -589 402 -99 38 -324 88
-403 89 -15 0 -50 16 -80 36 -85 59 -166 92 -331 134 -172 44 -326 71 -403 69
-27 -1 -99 -8 -159 -15z m-181 -3515 c81 -28 96 -30 174 -25 47 3 148 9 224
12 136 6 137 6 137 -16 0 -19 -1 -20 -16 -6 -40 41 -74 5 -73 -77 0 -34 5 -78
12 -97 10 -30 17 -35 42 -35 l30 0 1 75 c1 108 4 113 20 35 27 -133 28 -153
10 -180 -26 -40 -89 -73 -158 -85 -91 -14 -262 -12 -340 5 -319 70 -372 88
-383 132 -3 12 -31 39 -63 60 -51 34 -57 42 -60 77 -4 51 24 115 53 122 14 3
42 -5 73 -21 46 -24 55 -25 86 -15 19 6 40 18 48 27 13 16 64 42 83 43 6 0 51
-14 100 -31z m-1371 -39 c65 -22 146 -45 180 -51 33 -7 86 -23 116 -37 38 -17
89 -28 165 -35 100 -10 115 -14 165 -46 31 -20 74 -45 98 -55 53 -24 53 -36 1
-36 -141 0 -272 -49 -337 -127 -32 -38 -41 -43 -77 -43 -107 0 -229 -54 -325
-144 -36 -34 -75 -70 -87 -80 l-23 -19 0 356 c0 197 1 357 3 357 2 0 56 -18
121 -40z m960 -430 c114 -56 243 -92 414 -115 182 -24 582 -18 673 10 22 7 42
-85 44 -200 0 -76 5 -99 28 -146 40 -83 35 -139 -14 -139 -5 0 -9 27 -9 61 0
68 -21 124 -53 141 -14 7 -86 8 -233 3 -172 -6 -216 -10 -226 -22 -15 -18 -16
-74 -5 -155 l8 -57 -38 -10 c-21 -6 -60 -11 -88 -11 -48 0 -52 3 -96 53 -48
54 -165 147 -319 253 -92 63 -479 264 -508 264 -18 0 -42 18 -42 32 0 4 19 18
43 32 32 19 70 28 162 39 66 8 129 15 139 16 11 1 65 -22 120 -49z m-579 -149
c3 -5 42 -24 88 -41 89 -34 337 -156 383 -188 16 -11 67 -42 113 -68 91 -54
266 -203 305 -261 22 -32 24 -40 13 -58 -7 -11 -24 -37 -36 -58 l-23 -38 -64
56 c-100 89 -317 182 -445 192 -91 7 -141 -7 -171 -47 -17 -24 -32 -31 -92
-41 -39 -6 -80 -16 -90 -21 -13 -7 -31 -6 -58 3 -67 22 -66 30 9 111 137 145
141 162 61 233 -29 26 -80 60 -113 77 -82 42 -139 88 -126 101 6 6 34 21 63
33 55 24 171 33 183 15z m-292 -139 l27 -19 -41 -12 c-23 -7 -56 -26 -72 -42
-27 -28 -29 -34 -25 -94 l4 -63 -29 20 c-39 28 -42 40 -17 90 20 38 106 138
120 138 3 0 17 -8 33 -18z m2162 -47 c47 -79 70 -206 43 -233 -21 -21 -25 -14
-32 49 -3 33 -15 80 -25 104 -11 24 -20 59 -21 77 -4 62 0 63 35 3z m-2087
-57 c7 -7 12 -29 12 -49 0 -66 -76 -103 -120 -59 -28 28 -27 84 2 104 27 19
89 21 106 4z m141 -36 l35 -29 -77 -82 c-42 -45 -77 -86 -77 -91 0 -16 -22
-11 -56 12 l-33 22 52 26 c70 34 92 68 91 135 -2 61 1 61 65 7z m1671 -134 c0
-80 15 -135 41 -148 14 -8 36 -8 76 0 38 6 60 7 67 0 5 -5 12 -62 14 -125 5
-131 -4 -155 -62 -155 -17 0 -101 -9 -188 -20 -126 -16 -172 -17 -240 -9 -45
5 -150 9 -233 8 -133 -2 -150 0 -153 15 -2 9 9 31 25 50 16 18 46 62 66 99 21
36 45 68 55 71 9 2 70 8 134 11 112 7 120 8 149 36 l32 29 -8 81 c-3 45 -9 87
-12 95 -6 15 26 20 150 22 l87 2 0 -62z m-1971 -138 c83 -55 171 -110 196
-122 38 -18 45 -27 45 -51 0 -44 -15 -62 -65 -81 -25 -10 -50 -26 -55 -36 -26
-49 6 -100 64 -100 30 0 33 -3 29 -21 -3 -11 -11 -23 -18 -25 -23 -9 -262 63
-396 120 l-137 58 -6 37 c-3 22 1 63 9 95 8 31 15 59 15 62 0 3 10 -2 22 -10
54 -38 102 -3 111 81 5 46 21 93 31 93 2 0 72 -45 155 -100z m2334 -53 c18
-33 31 -79 37 -127 16 -129 17 -125 -45 -156 -31 -14 -58 -24 -62 -20 -3 3 1
23 10 43 20 49 29 171 16 239 -9 51 -7 74 9 74 4 0 20 -24 35 -53z m-1592 -2
c30 -9 85 -25 123 -36 l69 -21 -154 -52 c-85 -29 -179 -65 -210 -79 -31 -15
-60 -27 -64 -27 -5 0 -39 -14 -77 -32 -37 -17 -70 -29 -73 -27 -2 3 1 22 7 44
5 22 12 57 15 78 6 47 29 63 110 76 70 11 108 28 142 65 29 30 39 31 112 11z
m369 -210 c19 -10 39 -36 59 -77 40 -82 49 -126 27 -134 -24 -9 -41 10 -66 77
-15 38 -34 69 -52 82 -30 23 -35 36 -16 55 15 15 13 15 48 -3z m1030 -131 c0
-3 -5 -14 -10 -25 -15 -28 -40 -24 -40 6 0 20 5 25 25 25 14 0 25 -3 25 -6z
m-2383 -51 c59 -26 167 -63 238 -83 148 -42 157 -51 101 -104 -43 -40 -47 -76
-11 -111 28 -29 42 -31 73 -9 26 18 30 4 4 -19 -19 -18 -153 -67 -248 -91 -34
-9 -97 -16 -140 -16 -68 0 -83 3 -109 24 -30 24 -30 24 -32 138 0 62 -4 148
-8 190 -7 79 -2 128 14 128 5 0 58 -21 118 -47z m2248 11 c-1 -15 -8 -30 -16
-34 -17 -11 -160 -23 -224 -18 -46 3 -50 5 -53 29 l-3 27 103 7 c57 4 121 10
143 14 50 9 54 7 50 -25z m-395 -20 l0 -37 -42 7 c-24 3 -81 9 -128 13 -47 3
-88 11 -92 17 -22 32 -9 36 127 36 l135 0 0 -36z m817 -20 c-6 -56 -44 -130
-87 -169 -22 -20 -26 -55 -8 -73 19 -19 59 -14 84 9 13 13 24 17 28 10 12 -18
-87 -60 -160 -67 l-67 -7 6 93 c4 51 7 117 7 146 l0 53 54 6 c29 4 71 17 92
30 21 13 43 24 48 24 5 1 6 -24 3 -55z m-277 -82 c0 -26 -29 -37 -177 -68
-117 -25 -138 -26 -272 -20 -80 4 -184 10 -231 14 -79 6 -85 9 -88 30 -3 22
-3 23 65 15 99 -12 498 -8 566 5 32 7 70 18 85 26 38 20 52 19 52 -2z m-922
-73 c3 -50 -16 -71 -44 -48 -17 14 -18 71 -2 87 25 25 43 9 46 -39z m862 -127
c0 -27 5 -74 11 -106 8 -47 7 -66 -6 -107 l-17 -49 -94 0 c-107 0 -107 -1 -78
84 12 34 15 69 12 120 l-5 72 66 16 c110 26 111 26 111 -30z m-469 11 l167 -6
6 -56 c4 -37 1 -72 -9 -105 -8 -27 -15 -75 -15 -106 0 -51 -2 -58 -22 -64 -34
-9 -134 -7 -202 4 -34 5 -87 12 -119 15 l-58 7 6 41 c4 23 13 64 21 91 8 27
14 83 14 124 0 72 1 74 23 68 12 -4 97 -9 188 -13z m808 -363 c1 -167 -2 -200
-17 -230 -14 -29 -23 -36 -54 -38 -45 -4 -53 9 -61 98 -3 36 -9 73 -12 83 -6
13 -2 17 18 17 33 0 76 36 93 76 9 21 14 75 15 141 1 71 4 98 9 78 4 -16 8
-118 9 -225z m-2131 182 l-3 -37 -58 0 c-90 0 -103 -44 -37 -120 46 -53 53
-80 18 -70 -13 4 -31 16 -40 28 -10 12 -23 28 -28 35 -18 20 -50 14 -61 -12
-10 -20 -8 -31 10 -60 13 -20 36 -44 52 -53 36 -21 36 -29 3 -37 -38 -10 -113
30 -143 77 -29 44 -65 50 -82 13 -9 -18 -7 -30 5 -55 19 -36 13 -38 -31 -11
-19 11 -35 31 -39 47 -14 67 -21 78 -46 81 -18 2 -31 -4 -41 -19 -15 -21 -16
-21 -36 19 -12 23 -21 50 -21 62 0 18 6 20 65 20 108 0 384 78 453 129 39 28
64 12 60 -37z m2030 -70 c-3 -59 -7 -77 -23 -88 -18 -14 -20 -12 -33 38 -7 29
-20 66 -28 81 -7 16 -14 39 -14 52 0 21 5 24 43 27 53 4 60 -10 55 -110z
m-1087 21 c-11 -42 -47 -81 -97 -106 -50 -26 -225 -40 -464 -38 -295 2 -301 3
-321 49 l-15 37 290 1 291 1 160 50 c88 28 161 49 163 48 2 -2 -1 -21 -7 -42z
m883 -165 c14 -68 14 -92 1 -143 -17 -65 -19 -164 -5 -217 9 -31 7 -46 -15
-99 -29 -73 -34 -169 -10 -226 31 -74 20 -99 -78 -180 -31 -25 -35 -58 -10
-85 19 -22 52 -23 98 -4 34 15 35 14 35 -8 0 -28 -49 -76 -79 -76 -12 0 -54
-7 -94 -16 -77 -18 -114 -46 -150 -114 -16 -30 -20 -32 -28 -17 -7 11 -5 35 5
74 12 47 13 69 4 123 l-11 66 39 79 c34 71 38 88 38 150 -1 43 -9 92 -21 127
l-20 57 30 46 c34 52 45 118 28 167 -7 18 -15 91 -18 162 -5 108 -3 131 9 140
8 6 67 13 131 14 115 4 116 4 121 -20z m-624 -43 c63 -3 143 -8 178 -11 l62
-6 0 -66 c1 -37 7 -103 15 -147 8 -44 15 -85 15 -91 0 -18 -113 -156 -149
-182 -42 -30 -41 -78 2 -102 25 -14 30 -13 68 7 37 20 41 20 47 5 16 -40 5
-108 -29 -172 -32 -62 -34 -70 -35 -175 0 -60 -2 -115 -2 -121 -1 -6 -24 -39
-52 -73 -53 -67 -56 -72 -40 -101 18 -34 48 -44 76 -25 22 14 24 14 24 -1 0
-10 -7 -25 -15 -35 -13 -13 -23 -15 -53 -8 -48 11 -207 11 -352 0 -127 -10
-206 -34 -343 -103 -63 -32 -81 -37 -93 -28 -19 16 -18 31 1 24 8 -4 27 1 41
11 21 13 25 23 22 53 -2 31 -9 40 -38 54 -19 10 -40 25 -46 33 -18 24 -25 96
-15 133 7 25 6 55 -7 112 -9 44 -13 82 -10 86 4 3 19 -3 34 -15 45 -35 94 -23
109 26 5 18 -4 34 -43 75 -97 104 -124 188 -129 398 -2 85 -4 171 -5 190 -1
19 2 65 6 103 l8 67 72 0 c39 0 126 7 191 15 99 13 132 22 185 49 57 30 72 34
125 30 33 -2 112 -6 175 -9z m800 -1128 c152 -6 232 -24 315 -70 51 -29 102
-116 111 -189 l6 -54 -48 -26 c-59 -31 -77 -35 -226 -48 -106 -9 -122 -8 -182
11 -37 11 -81 28 -99 38 -17 11 -43 22 -57 26 -14 3 -93 34 -176 67 -166 67
-176 77 -108 117 18 11 48 43 65 71 17 28 40 55 51 61 33 18 160 27 183 13 11
-7 83 -14 165 -17z m-675 -283 c11 -3 29 -22 41 -42 11 -20 42 -71 68 -113 36
-57 50 -93 59 -144 13 -79 9 -85 -83 -111 -30 -9 -82 -25 -115 -36 -88 -28
-253 -35 -334 -14 -73 19 -158 75 -237 158 -47 49 -114 154 -114 178 0 11 156
87 222 109 78 26 416 36 493 15z m288 -79 c151 -63 261 -106 337 -131 73 -24
79 -25 205 -14 72 6 146 14 165 17 19 3 32 3 29 -1 -11 -11 -223 -37 -314 -37
-135 -1 -234 27 -350 100 -33 21 -81 46 -107 56 -26 10 -53 24 -59 31 -18 22
5 17 94 -21z m-818 -439 c89 -58 142 -71 300 -70 125 0 149 3 228 28 94 31
119 29 66 -3 -56 -34 -211 -65 -329 -65 -103 -1 -107 0 -165 34 -33 19 -73 42
-89 50 -16 8 -50 35 -75 58 -25 24 -32 34 -16 22 17 -11 53 -36 80 -54z"/>
<path d="M5786 8744 c-18 -18 -23 -146 -6 -188 10 -28 50 -36 67 -13 11 13 9
190 -2 207 -9 15 -41 12 -59 -6z"/>
</g>
</svg>
